<svg width="current" height="current" viewBox="0 0 40 40" fill="none" xmlns="http://www.w3.org/2000/svg">
<rect x="15.8125" y="21" width="8" height="12" rx="4" stroke="currentColor" stroke-width="2" fill="white"/>
<mask id="path-2-inside-1_1067_8399" fill="white">
<path fill-rule="evenodd" clip-rule="evenodd" d="M23.7817 9.5013C27.2934 10.7281 29.8125 14.0698 29.8125 18V21C29.8125 21.223 29.8044 21.4442 29.7885 21.6631L32.8992 25.3C34.5642 27.2466 33.181 30.25 30.6194 30.25H9.00579C6.44421 30.25 5.06096 27.2466 6.72598 25.3L9.83659 21.6633C9.82064 21.4443 9.81252 21.2231 9.81252 21V18C9.81252 14.0698 12.3317 10.7281 15.8433 9.5013C16.0888 7.52752 17.7723 6 19.8125 6C21.8528 6 23.5363 7.52752 23.7817 9.5013Z"/>
</mask>
<path fill-rule="evenodd" clip-rule="evenodd" d="M23.7817 9.5013C27.2934 10.7281 29.8125 14.0698 29.8125 18V21C29.8125 21.223 29.8044 21.4442 29.7885 21.6631L32.8992 25.3C34.5642 27.2466 33.181 30.25 30.6194 30.25H9.00579C6.44421 30.25 5.06096 27.2466 6.72598 25.3L9.83659 21.6633C9.82064 21.4443 9.81252 21.2231 9.81252 21V18C9.81252 14.0698 12.3317 10.7281 15.8433 9.5013C16.0888 7.52752 17.7723 6 19.8125 6C21.8528 6 23.5363 7.52752 23.7817 9.5013Z" fill="white"/>
<path d="M23.7817 9.5013L21.797 9.74813L21.9502 10.98L23.1221 11.3894L23.7817 9.5013ZM29.7885 21.6631L27.7937 21.5179L27.734 22.3381L28.2686 22.9631L29.7885 21.6631ZM32.8992 25.3L31.3793 26.6L32.8992 25.3ZM6.72598 25.3L5.20611 24H5.20611L6.72598 25.3ZM9.83659 21.6633L11.3565 22.9633L11.8911 22.3383L11.8313 21.518L9.83659 21.6633ZM15.8433 9.5013L16.5029 11.3894L17.6748 10.98L17.828 9.74813L15.8433 9.5013ZM31.8125 18C31.8125 13.1934 28.7307 9.11168 24.4413 7.6132L23.1221 11.3894C25.856 12.3445 27.8125 14.9463 27.8125 18H31.8125ZM31.8125 21V18H27.8125V21H31.8125ZM31.7832 21.8084C31.8026 21.5411 31.8125 21.2716 31.8125 21H27.8125C27.8125 21.1745 27.8062 21.3472 27.7937 21.5179L31.7832 21.8084ZM34.4191 24L31.3083 20.3631L28.2686 22.9631L31.3793 26.6L34.4191 24ZM30.6194 32.25C34.8887 32.25 37.1941 27.2444 34.4191 24L31.3793 26.6C31.9343 27.2489 31.4733 28.25 30.6194 28.25V32.25ZM9.00579 32.25H30.6194V28.25H9.00579V32.25ZM5.20611 24C2.43106 27.2444 4.73649 32.25 9.00579 32.25V28.25C8.15193 28.25 7.69085 27.2489 8.24586 26.6L5.20611 24ZM8.31672 20.3633L5.20611 24L8.24586 26.6L11.3565 22.9633L8.31672 20.3633ZM7.81252 21C7.81252 21.2716 7.82241 21.5413 7.84188 21.8086L11.8313 21.518C11.8189 21.3473 11.8125 21.1746 11.8125 21H7.81252ZM7.81252 18V21H11.8125V18H7.81252ZM15.1837 7.6132C10.8943 9.11168 7.81252 13.1934 7.81252 18H11.8125C11.8125 14.9463 13.769 12.3445 16.5029 11.3894L15.1837 7.6132ZM17.828 9.74813C17.9505 8.76329 18.7939 8 19.8125 8V4C16.7506 4 14.2271 6.29174 13.8586 9.25447L17.828 9.74813ZM19.8125 8C20.8311 8 21.6745 8.76329 21.797 9.74813L25.7664 9.25447C25.398 6.29174 22.8744 4 19.8125 4V8Z" fill="currentColor" mask="url(#path-2-inside-1_1067_8399)"/>
</svg>
