<svg width="current" height="current" viewBox="0 0 40 40" fill="none" xmlns="http://www.w3.org/2000/svg">
<path fill-rule="evenodd" clip-rule="evenodd" d="M16.0944 8.79245C15.1462 9.60819 14.7731 10.5135 14.7731 11V13.9999L12.1064 14V11C12.1064 9.68645 12.9334 8.19181 14.2518 7.05755C15.6144 5.8853 17.6047 5 20.1064 5C22.6082 5 24.5985 5.8853 25.9611 7.05755C27.2795 8.19181 28.1064 9.68645 28.1064 11V14H25.4398V11C25.4398 10.5135 25.0667 9.60819 24.1185 8.79245C23.2144 8.0147 21.8714 7.4 20.1064 7.4C18.3415 7.4 16.9985 8.0147 16.0944 8.79245Z" fill="currentColor"/>
<path fill-rule="evenodd" clip-rule="evenodd" d="M10 15C8.34315 15 7 16.3431 7 18V30C7 31.6569 8.34315 33 10 33H30C31.6569 33 33 31.6569 33 30V18C33 16.3431 31.6569 15 30 15H10ZM23.0318 22.9999C23.0318 24.3062 22.188 25.4174 21.0103 25.8292V27.4999C21.0103 27.776 20.7865 27.9999 20.5103 27.9999H19.489C19.2129 27.9999 18.989 27.776 18.989 27.4999V25.829C17.8115 25.4172 16.9679 24.306 16.9679 22.9999C16.9679 21.3431 18.3254 20 19.9999 20C21.6744 20 23.0318 21.3431 23.0318 22.9999Z" fill="currentColor"/>
</svg>
