<svg width="current" height="current" viewBox="0 0 101 40" fill="none" xmlns="http://www.w3.org/2000/svg">
<path d="M0 5.33003C0 2.37562 3.46214 0.175173 7.26126 0.638719C23.0338 2.55992 28.6428 10.6301 28.6428 20.2808C28.6428 29.9315 22.9197 38.0742 7.02211 39.9452C3.31539 40.3864 0 38.1077 0 35.2315V5.33003Z" fill="#FF836D"/>
<path d="M43.6575 3.65855L29.5683 31.6948C29.1331 32.5629 28.9223 33.5316 28.9562 34.5077C28.99 35.4839 29.2673 36.4347 29.7615 37.2688C30.2556 38.1028 30.95 38.7921 31.7779 39.2705C32.6058 39.7488 33.5394 40 34.489 40H62.6561C63.6048 39.9986 64.5372 39.7462 65.3637 39.2671C66.1902 38.788 66.8829 38.0982 67.3754 37.2641C67.8679 36.4299 68.1435 35.4795 68.1758 34.5042C68.208 33.5289 67.9959 32.5614 67.5597 31.6948L53.4818 3.65855C53.0172 2.73034 52.313 1.95171 51.4465 1.4081C50.58 0.864487 49.5846 0.576904 48.5697 0.576904C47.5547 0.576904 46.5594 0.864487 45.6929 1.4081C44.8264 1.95171 44.1222 2.73034 43.6575 3.65855Z" fill="#FFC74A"/>
<path d="M85.6091 36.9175L99.6976 8.87293C100.13 8.00537 100.339 7.03818 100.304 6.06391C100.269 5.08964 99.9914 4.14089 99.4983 3.30844C99.0051 2.47599 98.3126 1.78771 97.487 1.30945C96.6614 0.831195 95.7303 0.578967 94.7829 0.576904H66.6114C65.6624 0.577937 64.7296 0.829988 63.9025 1.30886C63.0754 1.78773 62.3818 2.47735 61.8884 3.3115C61.3949 4.14566 61.1181 5.09634 61.0845 6.07229C61.0509 7.04824 61.2617 8.01669 61.6967 8.88466L75.7853 36.9175C76.2499 37.846 76.954 38.6248 77.8205 39.1686C78.687 39.7124 79.6823 40 80.6972 40C81.7121 40 82.7073 39.7124 83.5738 39.1686C84.4403 38.6248 85.1445 37.846 85.6091 36.9175Z" fill="#27B76F"/>
</svg>
