<svg width="456" height="284" viewBox="0 0 456 284" fill="none" xmlns="http://www.w3.org/2000/svg">
<path fill-rule="evenodd" clip-rule="evenodd" d="M294.06 6.19043C282.093 6.19043 272.393 15.8913 272.393 27.858V226.657C272.393 238.623 282.093 248.324 294.06 248.324H358.291C359.811 253.718 366.555 276.758 371.348 278.506C375.515 280.027 391.98 258.448 399.417 248.324H434.126C446.092 248.324 455.793 238.623 455.793 226.657V27.858C455.793 15.8913 446.092 6.19043 434.126 6.19043H294.06Z" fill="#27B76F"/>
<path d="M328.158 98.2856V103.049H360.512V98.2856H328.158ZM331.74 104.269V108.727H350.642V109.871H331.778V116.578H337.837V114.024H356.701V104.269H331.74ZM331.778 115.244V119.779H357.577V115.244H331.778ZM340.619 87.1199V87.9202C340.619 89.7875 338.409 92.6075 329.415 93.141L331.283 97.714C341.839 97.1043 345.992 92.798 345.992 87.9202V87.1199H340.619ZM342.677 87.1199V87.9202C342.677 92.8361 346.869 97.1043 357.387 97.714L359.254 93.141C350.222 92.6075 348.05 89.8256 348.05 87.9202V87.1199H342.677ZM331.092 85.1383V89.8637H357.615V85.1383H331.092Z" fill="white"/>
<path d="M387.261 84.1855V119.931H393.434V84.1855H387.261ZM381.163 97.5235V102.478H390.309V97.5235H381.163ZM375.409 87.7677V88.911C375.409 98.4762 372.513 104.345 362.605 109.337L365.768 114.101C378.458 107.775 381.468 98.9716 381.468 87.7677H375.409ZM364.358 87.7677V92.6075H378.648V87.7677H364.358Z" fill="white"/>
<path d="M411.38 102.973V108.384H417.516V102.973H411.38ZM414.467 84.5666C406.503 84.5666 401.32 87.2342 401.32 91.5786C401.32 95.8848 406.503 98.5143 414.467 98.5143C422.432 98.5143 427.615 95.8848 427.615 91.5786C427.615 87.2342 422.432 84.5666 414.467 84.5666ZM414.467 89.2158C418.926 89.2158 421.25 89.9018 421.25 91.5786C421.25 93.2172 418.926 93.9032 414.467 93.9032C410.008 93.9032 407.684 93.2172 407.684 91.5786C407.684 89.9018 410.008 89.2158 414.467 89.2158ZM401.93 107.165V119.588H426.814V107.165H401.93ZM420.793 111.967V114.787H407.951V111.967H420.793ZM398.271 99.8481V104.688H430.625V99.8481H398.271Z" fill="white"/>
<path fill-rule="evenodd" clip-rule="evenodd" d="M360.641 145.773C359.396 144.081 358.782 142.101 358.581 140.744L362.438 140.129C362.562 140.964 362.973 142.272 363.744 143.319C364.473 144.31 365.448 144.989 366.851 144.989C368.254 144.989 369.229 144.31 369.958 143.319C370.729 142.272 371.14 140.964 371.264 140.129L375.121 140.744C374.92 142.101 374.306 144.081 373.061 145.773C371.774 147.522 369.741 149.035 366.851 149.035C363.961 149.035 361.928 147.522 360.641 145.773Z" fill="#252525"/>
<path fill-rule="evenodd" clip-rule="evenodd" d="M382.35 145.773C381.056 144.081 380.419 142.101 380.21 140.744L384.216 140.129C384.345 140.964 384.771 142.272 385.572 143.319C386.329 144.31 387.342 144.989 388.799 144.989C390.255 144.989 391.268 144.31 392.025 143.319C392.826 142.272 393.253 140.964 393.381 140.129L397.387 140.744C397.178 142.101 396.541 144.081 395.247 145.773C393.911 147.522 391.8 149.035 388.799 149.035C385.797 149.035 383.686 147.522 382.35 145.773Z" fill="#252525"/>
<path d="M392.72 158.809C391.539 162.841 390.751 162.841 386.323 163.849C381.895 164.857 380.91 172.416 387.307 171.912C393.704 171.408 394.688 169.393 395.672 168.889C396.656 168.385 402.069 162.841 401.085 158.809C400.101 154.777 394.196 153.769 392.72 158.809Z" fill="#252525"/>
<path fill-rule="evenodd" clip-rule="evenodd" d="M67.7112 121.493C30.3153 121.493 0 151.808 0 189.204V193.074C0 230.469 30.3153 260.785 67.7112 260.785H68.3405C74.3594 269.445 87.1927 286.901 90.6746 283.587C93.9629 280.457 95.1126 267.759 95.5007 260.785H250.67C288.065 260.785 318.381 230.469 318.381 193.074V189.204C318.381 151.808 288.065 121.493 250.67 121.493H67.7112Z" fill="#FFC74A"/>
<circle cx="140.851" cy="218.479" r="4.58926" fill="#252525" stroke="#252525"/>
<circle cx="160.571" cy="218.479" r="4.58926" fill="#252525" stroke="#252525"/>
<path d="M178.429 231.09C179.013 232.286 178.754 233.854 177.677 235.482C176.607 237.099 174.777 238.688 172.429 239.835C170.081 240.982 167.703 241.449 165.77 241.299C163.823 241.148 162.428 240.388 161.844 239.192C161.26 237.996 161.518 236.428 162.596 234.8C163.666 233.183 165.496 231.594 167.844 230.447C170.192 229.3 172.57 228.833 174.503 228.983C176.449 229.134 177.845 229.894 178.429 231.09Z" fill="#252525" stroke="#252525"/>
<path fill-rule="evenodd" clip-rule="evenodd" d="M21.6676 0C9.7009 0 0 9.70091 0 21.6676V102.921C0 114.888 9.70088 124.589 21.6676 124.589H208.192C208.477 130.925 209.519 145.722 213.106 149.136C216.842 152.693 231.346 132.333 236.644 124.589H295.902C307.869 124.589 317.57 114.888 317.57 102.921V21.6676C317.57 9.7009 307.869 0 295.902 0H21.6676Z" fill="#FF836D"/>
<path d="M129.143 24.0674V59.813H135.278V24.0674H129.143ZM133.906 37.5958V42.6643H140.042V37.5958H133.906ZM106.773 29.0977V33.9374H127.466V29.0977H106.773ZM117.138 35.4618C111.841 35.4618 107.878 39.0821 107.878 44.1505C107.878 49.2189 111.841 52.8392 117.138 52.8392C122.435 52.8392 126.399 49.2189 126.399 44.1505C126.399 39.0821 122.435 35.4618 117.138 35.4618ZM117.138 40.4159C119.12 40.4159 120.53 41.6734 120.53 44.1505C120.53 46.6275 119.12 47.8851 117.138 47.8851C115.157 47.8851 113.747 46.6275 113.747 44.1505C113.747 41.6734 115.157 40.4159 117.138 40.4159ZM114.052 24.7152V30.8507H120.225V24.7152H114.052Z" fill="white"/>
<path d="M145.64 25.0201V29.8599H164.504V31.8415H145.679V41.4067H151.928V36.3764H170.754V25.0201H145.64ZM145.679 38.4342V43.2359H171.668V38.4342H145.679ZM142.02 45.2937V50.1716H174.374V45.2937H142.02ZM155.053 47.0467V59.8892H161.189V47.0467H155.053Z" fill="white"/>
<path d="M177.077 39.768V44.1505H209.431V39.768H177.077ZM180.583 45.3699V49.4475H199.637V50.5527H180.621V56.7643H186.718V54.3254H205.696V45.3699H180.583ZM180.621 55.5449V59.6225H206.611V55.5449H180.621ZM180.964 24.4104V28.488H199.561V29.6312H181.002V35.8048H187.061V33.4039H205.62V24.4104H180.964ZM181.002 34.5853V38.6629H206.268V34.5853H181.002Z" fill="white"/>
<path d="M124.43 172.405V177.359H156.784V172.405H124.43ZM137.501 165.24V173.51H143.636V165.24H137.501ZM127.631 147.634V166.422H153.468V147.634H147.371V152.665H133.728V147.634H127.631ZM133.728 157.428H147.371V161.582H133.728V157.428Z" fill="white"/>
<path d="M163.259 154.57V159.41H188.334V154.57H163.259ZM159.486 162.535V167.374H191.84V162.535H159.486ZM163.259 146.758V156.971H169.395V146.758H163.259ZM162.878 175.682V180.56H188.525V175.682H162.878ZM162.878 169.813V176.978H169.052V169.813H162.878Z" fill="white"/>
<path d="M152.743 80.3353C152.743 82.9008 150.8 84.9246 148.471 84.9246C146.142 84.9246 144.2 82.9008 144.2 80.3353C144.2 77.7699 146.142 75.7461 148.471 75.7461C150.8 75.7461 152.743 77.7699 152.743 80.3353Z" fill="#252525" stroke="#252525"/>
<circle cx="168.51" cy="80.3354" r="4.58926" fill="#252525" stroke="#252525"/>
<path fill-rule="evenodd" clip-rule="evenodd" d="M146.246 92.4229H171.692V97.4236L171.683 97.5165C171.492 99.5301 170.653 102.482 168.708 104.98C166.705 107.552 163.548 109.599 158.969 109.599C154.389 109.599 151.233 107.552 149.229 104.98C147.285 102.482 146.446 99.5301 146.254 97.5165L146.246 97.4236V92.4229ZM150.16 96.3488V97.2316C150.312 98.6548 150.944 100.803 152.315 102.563C153.656 104.285 155.718 105.673 158.969 105.673C162.219 105.673 164.282 104.285 165.623 102.563C166.994 100.803 167.625 98.6548 167.777 97.2316V96.3488H150.16Z" fill="#252525"/>
</svg>
