<svg width="28" height="28" viewBox="0 0 28 28" fill="none" xmlns="http://www.w3.org/2000/svg">
<path fill-rule="evenodd" clip-rule="evenodd" d="M12.5965 6L12.3521 7.46663C11.6988 7.63086 11.0835 7.89048 10.5217 8.22982L9.4465 7.4618L7.46164 9.44666L8.22959 10.5218C7.8902 11.0836 7.63053 11.6989 7.46625 12.3521L6 12.5965V15.4035L7.466 15.6478C7.64097 16.344 7.92427 16.9971 8.29695 17.5883L7.46164 18.7577L9.4465 20.7426L10.6782 19.8628C11.1971 20.1575 11.7591 20.3852 12.3522 20.5343L12.5965 22H15.4035L15.6478 20.5343C16.2841 20.3743 16.8845 20.1238 17.4345 19.7973L18.7579 20.7426L20.7427 18.7577L19.7973 17.4341C20.1237 16.8843 20.374 16.284 20.5339 15.6479L22 15.4035V12.5965L20.5337 12.3521C20.3846 11.7593 20.157 11.1977 19.8625 10.679L20.7427 9.44666L18.7579 7.4618L17.5879 8.2975C16.9969 7.9249 16.3439 7.64163 15.6479 7.46664L15.4035 6H12.5965ZM14.0004 16.9999C15.6573 16.9999 17.0004 15.6568 17.0004 13.9999C17.0004 12.3431 15.6573 10.9999 14.0004 10.9999C12.3436 10.9999 11.0004 12.3431 11.0004 13.9999C11.0004 15.6568 12.3436 16.9999 14.0004 16.9999Z" fill="black"/>
</svg>
