<svg width="current" height="current" viewBox="0 0 28 28" fill="none" xmlns="http://www.w3.org/2000/svg">
<path d="M11.8077 20.4134V18.9134H23V20.4134H11.8077ZM11.8077 14.4134V12.9134H23V14.4134H11.8077ZM11.8077 8.4134V6.91345H23V8.4134H11.8077ZM7.66345 21.3268C7.206 21.3268 6.8144 21.164 6.48865 20.8382C6.16288 20.5125 6 20.1209 6 19.6634C6 19.206 6.16288 18.8144 6.48865 18.4886C6.8144 18.1629 7.206 18 7.66345 18C8.1209 18 8.5125 18.1629 8.83825 18.4886C9.164 18.8144 9.32687 19.206 9.32687 19.6634C9.32687 20.1209 9.164 20.5125 8.83825 20.8382C8.5125 21.164 8.1209 21.3268 7.66345 21.3268ZM7.66345 15.3268C7.206 15.3268 6.8144 15.164 6.48865 14.8382C6.16288 14.5125 6 14.1209 6 13.6634C6 13.206 6.16288 12.8144 6.48865 12.4886C6.8144 12.1629 7.206 12 7.66345 12C8.1209 12 8.5125 12.1629 8.83825 12.4886C9.164 12.8144 9.32687 13.206 9.32687 13.6634C9.32687 14.1209 9.164 14.5125 8.83825 14.8382C8.5125 15.164 8.1209 15.3268 7.66345 15.3268ZM7.66345 9.32685C7.206 9.32685 6.8144 9.16397 6.48865 8.83822C6.16288 8.51247 6 8.12087 6 7.66342C6 7.20597 6.16288 6.81437 6.48865 6.48862C6.8144 6.16287 7.206 6 7.66345 6C8.1209 6 8.5125 6.16287 8.83825 6.48862C9.164 6.81437 9.32687 7.20597 9.32687 7.66342C9.32687 8.12087 9.164 8.51247 8.83825 8.83822C8.5125 9.16397 8.1209 9.32685 7.66345 9.32685Z" fill="currentColor"/>
</svg>
