<svg width="current" height="current" viewBox="0 0 40 40" fill="none" xmlns="http://www.w3.org/2000/svg">
<circle cx="20" cy="13" r="6" stroke="currentColor" stroke-width="2"/>
<mask id="path-2-inside-1_142_489" fill="white">
<path fill-rule="evenodd" clip-rule="evenodd" d="M33.9308 34C33.9766 33.6651 34 33.3253 34 32.9816C34 27.3584 27.732 22.7998 20 22.7998C12.268 22.7998 6 27.3584 6 32.9816C6 33.3253 6.02342 33.6651 6.06915 34H33.9308Z"/>
</mask>
<path d="M33.9308 34V36H35.6763L35.9125 34.2706L33.9308 34ZM6.06915 34L4.08754 34.2706L4.32368 36H6.06915V34ZM32 32.9816C32 33.2343 31.9828 33.4836 31.9492 33.7294L35.9125 34.2706C35.9704 33.8465 36 33.4164 36 32.9816H32ZM20 24.7998C23.4892 24.7998 26.5668 25.8312 28.7232 27.3995C30.8814 28.9691 32 30.9675 32 32.9816H36C36 29.3725 33.9846 26.28 31.0758 24.1645C28.1652 22.0477 24.2428 20.7998 20 20.7998V24.7998ZM8 32.9816C8 30.9675 9.11857 28.9691 11.2768 27.3995C13.4332 25.8312 16.5108 24.7998 20 24.7998V20.7998C15.7572 20.7998 11.8348 22.0477 8.92416 24.1645C6.01544 26.28 4 29.3725 4 32.9816H8ZM8.05076 33.7294C8.0172 33.4836 8 33.2343 8 32.9816H4C4 33.4164 4.02963 33.8465 4.08754 34.2706L8.05076 33.7294ZM6.06915 36H33.9308V32H6.06915V36Z" fill="currentColor" mask="url(#path-2-inside-1_142_489)"/>
</svg>
