<svg width="current" height="current" viewBox="0 0 40 40" fill="none" xmlns="http://www.w3.org/2000/svg">
<path d="M5.05725 33.6665C4.92765 34.0329 5.02203 34.4411 5.29929 34.7134C5.57654 34.9857 5.98644 35.0728 6.35042 34.9366L14.1409 32.0219C14.2745 31.9719 14.3959 31.8939 14.4968 31.7932L30.0779 16.248L32.0253 14.305L34.4601 11.8759C34.5362 11.7999 34.5996 11.7121 34.6478 11.616C35.1403 10.6331 35.3877 8.47078 33.4862 6.57372C32.4057 5.49567 31.284 4.91746 30.0863 5.00937C28.932 5.09796 27.9858 5.79425 27.2046 6.57372C27.0075 6.77035 26.4872 7.27986 25.7251 8.0234C25.1734 8.56152 24.4977 9.21974 23.7311 9.96569C19.4445 14.1372 12.3249 21.0471 8.2252 25.0238C8.1145 25.1312 8.03013 25.2627 7.9787 25.4081L5.05725 33.6665Z" stroke="currentColor" stroke-width="2" stroke-linejoin="round"/>
<rect x="8.91406" y="23.3193" width="10" height="2" transform="rotate(45 8.91406 23.3193)" fill="currentColor"/>
<rect x="23.9141" y="9.31934" width="10" height="2" transform="rotate(45 23.9141 9.31934)" fill="currentColor"/>
<rect x="25.9141" y="7.31934" width="10" height="2" transform="rotate(45 25.9141 7.31934)" fill="currentColor"/>
</svg>
